<svg width="102" height="56" viewBox="0 0 102 56" fill="none" xmlns="http://www.w3.org/2000/svg">
<path d="M14.65 9.975C18.45 9.975 20.35 11.1833 20.35 13.6C20.35 14.7333 20.0917 15.7 19.575 16.5C19.0583 17.2833 18.1333 17.9 16.8 18.35C15.4667 18.7833 13.6167 19 11.25 19H7.07805e-08C0.133333 15.7667 0.2 12.7417 0.2 9.925C0.2 7.10833 0.133333 4.08333 7.07805e-08 0.85H5.875V0.874999H11.2C13.2667 0.874999 14.8917 1.05 16.075 1.4C17.275 1.73333 18.1167 2.225 18.6 2.875C19.1 3.525 19.35 4.35 19.35 5.35C19.35 6.36667 18.9917 7.275 18.275 8.075C17.575 8.85833 16.3667 9.49167 14.65 9.975ZM5.875 5.425V7.75H10.675C11.7083 7.75 12.425 7.65833 12.825 7.475C13.2417 7.29167 13.45 6.95833 13.45 6.475C13.45 6.09167 13.2333 5.825 12.8 5.675C12.3833 5.50833 11.675 5.425 10.675 5.425H5.875ZM10.675 14.425C11.5417 14.425 12.2 14.3917 12.65 14.325C13.1167 14.2417 13.45 14.1083 13.65 13.925C13.85 13.725 13.95 13.4583 13.95 13.125C13.95 12.6917 13.7083 12.3833 13.225 12.2C12.7583 12 11.9083 11.9 10.675 11.9H5.875V14.425H10.675ZM37.2139 19.25C33.3972 19.25 30.5889 18.425 28.7889 16.775C26.9889 15.1083 26.0889 12.775 26.0889 9.775C26.0889 6.80833 26.9805 4.49167 28.7639 2.825C30.5639 1.15833 33.3805 0.324999 37.2139 0.324999C41.0639 0.324999 43.8805 1.15833 45.6639 2.825C47.4639 4.49167 48.3639 6.80833 48.3639 9.775C48.3639 12.7917 47.4722 15.125 45.6889 16.775C43.9055 18.425 41.0805 19.25 37.2139 19.25ZM37.2139 14.15C39.0639 14.15 40.3972 13.8 41.2139 13.1C42.0305 12.3833 42.4389 11.275 42.4389 9.775C42.4389 8.30833 42.0305 7.21667 41.2139 6.5C40.3972 5.78333 39.0639 5.425 37.2139 5.425C35.3805 5.425 34.0555 5.78333 33.2389 6.5C32.4222 7.21667 32.0139 8.30833 32.0139 9.775C32.0139 11.2583 32.4222 12.3583 33.2389 13.075C34.0555 13.7917 35.3805 14.15 37.2139 14.15ZM62.1064 0.574999C65.2398 0.574999 67.7148 0.958332 69.5314 1.725C71.3481 2.475 72.6148 3.525 73.3314 4.875C74.0648 6.20833 74.4314 7.85 74.4314 9.8C74.4314 11.65 74.0148 13.2667 73.1814 14.65C72.3481 16.0333 71.0981 17.1083 69.4314 17.875C67.7648 18.625 65.7148 19 63.2814 19C61.7981 19 60.2898 19 58.7564 19C57.2231 19 55.6731 18.9917 54.1064 18.975C54.2398 15.6917 54.3064 12.6333 54.3064 9.8C54.3064 6.93333 54.2398 3.94167 54.1064 0.824999C56.0898 0.658332 58.7564 0.574999 62.1064 0.574999ZM63.9814 14.025C65.5314 14.025 66.5648 13.65 67.0814 12.9C67.5981 12.15 67.8564 11.1167 67.8564 9.8C67.8564 8.53333 67.5814 7.50833 67.0314 6.725C66.4981 5.94167 65.4814 5.55 63.9814 5.55C62.3648 5.55 61.1564 5.6 60.3564 5.7V14.025H63.9814ZM101.176 0.85L100.701 1.575C98.9174 4.34167 97.3841 6.79167 96.1008 8.925C94.8341 11.0417 93.7758 12.9917 92.9258 14.775V19H86.4008V14.35C85.7841 13.1 85.0591 11.8167 84.2258 10.5C83.3924 9.16667 82.2091 7.34167 80.6758 5.025C79.4758 3.25833 78.5591 1.86667 77.9258 0.85H84.9258C85.4258 1.86667 86.2424 3.375 87.3758 5.375C88.5091 7.40833 89.2841 8.84167 89.7008 9.675C90.2841 8.45833 91.0674 6.96667 92.0508 5.2C93.2008 3.13333 93.9758 1.68333 94.3758 0.85H101.176Z" fill="#33B0AA"/>
<path d="M3.2 45.975V44.525H6.025C6.575 44.525 7.05833 44.4333 7.475 44.25C7.89167 44.0667 8.21667 43.8083 8.45 43.475C8.68333 43.125 8.8 42.7083 8.8 42.225C8.8 41.4917 8.54167 40.925 8.025 40.525C7.50833 40.125 6.84167 39.925 6.025 39.925H3.9V52.575H6.35C7.01667 52.575 7.60833 52.4667 8.125 52.25C8.64167 52.0333 9.05 51.7083 9.35 51.275C9.65 50.8417 9.8 50.3 9.8 49.65C9.8 49.1833 9.70833 48.775 9.525 48.425C9.35833 48.0583 9.11667 47.7583 8.8 47.525C8.5 47.275 8.14167 47.1 7.725 47C7.30833 46.8833 6.85 46.825 6.35 46.825H3.2V45.2H6.525C7.375 45.2 8.175 45.2917 8.925 45.475C9.675 45.6583 10.3417 45.9417 10.925 46.325C11.525 46.7083 11.9917 47.2 12.325 47.8C12.6583 48.4 12.825 49.1167 12.825 49.95C12.825 51.1 12.55 52.05 12 52.8C11.4667 53.55 10.725 54.1083 9.775 54.475C8.84167 54.825 7.75833 55 6.525 55H0.95V37.5H6.225C7.325 37.5 8.29167 37.6583 9.125 37.975C9.975 38.2917 10.6333 38.775 11.1 39.425C11.5833 40.075 11.825 40.9 11.825 41.9C11.825 42.7667 11.5833 43.5083 11.1 44.125C10.6333 44.725 9.975 45.1833 9.125 45.5C8.29167 45.8167 7.325 45.975 6.225 45.975H3.2ZM21.8152 46.25C21.8152 47.45 22.0652 48.525 22.5652 49.475C23.0819 50.4083 23.7902 51.1417 24.6902 51.675C25.5902 52.2083 26.6152 52.475 27.7652 52.475C28.9319 52.475 29.9569 52.2083 30.8402 51.675C31.7402 51.1417 32.4402 50.4083 32.9402 49.475C33.4569 48.525 33.7152 47.45 33.7152 46.25C33.7152 45.05 33.4652 43.9833 32.9652 43.05C32.4652 42.1 31.7652 41.3583 30.8652 40.825C29.9819 40.2917 28.9486 40.025 27.7652 40.025C26.6152 40.025 25.5902 40.2917 24.6902 40.825C23.7902 41.3583 23.0819 42.1 22.5652 43.05C22.0652 43.9833 21.8152 45.05 21.8152 46.25ZM18.6902 46.25C18.6902 44.9333 18.9152 43.725 19.3652 42.625C19.8152 41.525 20.4486 40.575 21.2652 39.775C22.0986 38.9583 23.0652 38.325 24.1652 37.875C25.2819 37.425 26.4819 37.2 27.7652 37.2C29.0819 37.2 30.2902 37.425 31.3902 37.875C32.4902 38.325 33.4486 38.9583 34.2652 39.775C35.0986 40.575 35.7402 41.525 36.1902 42.625C36.6402 43.725 36.8652 44.9333 36.8652 46.25C36.8652 47.55 36.6402 48.7583 36.1902 49.875C35.7402 50.9917 35.1069 51.9583 34.2902 52.775C33.4736 53.5917 32.5069 54.2333 31.3902 54.7C30.2902 55.15 29.0819 55.375 27.7652 55.375C26.4652 55.375 25.2569 55.15 24.1402 54.7C23.0236 54.2333 22.0569 53.5917 21.2402 52.775C20.4402 51.9583 19.8152 50.9917 19.3652 49.875C18.9152 48.7583 18.6902 47.55 18.6902 46.25ZM45.6092 46.25C45.6092 47.45 45.8592 48.525 46.3592 49.475C46.8758 50.4083 47.5842 51.1417 48.4842 51.675C49.3842 52.2083 50.4092 52.475 51.5592 52.475C52.7258 52.475 53.7508 52.2083 54.6342 51.675C55.5342 51.1417 56.2342 50.4083 56.7342 49.475C57.2508 48.525 57.5092 47.45 57.5092 46.25C57.5092 45.05 57.2592 43.9833 56.7592 43.05C56.2592 42.1 55.5592 41.3583 54.6592 40.825C53.7758 40.2917 52.7425 40.025 51.5592 40.025C50.4092 40.025 49.3842 40.2917 48.4842 40.825C47.5842 41.3583 46.8758 42.1 46.3592 43.05C45.8592 43.9833 45.6092 45.05 45.6092 46.25ZM42.4842 46.25C42.4842 44.9333 42.7092 43.725 43.1592 42.625C43.6092 41.525 44.2425 40.575 45.0592 39.775C45.8925 38.9583 46.8592 38.325 47.9592 37.875C49.0758 37.425 50.2758 37.2 51.5592 37.2C52.8758 37.2 54.0842 37.425 55.1842 37.875C56.2842 38.325 57.2425 38.9583 58.0592 39.775C58.8925 40.575 59.5342 41.525 59.9842 42.625C60.4342 43.725 60.6592 44.9333 60.6592 46.25C60.6592 47.55 60.4342 48.7583 59.9842 49.875C59.5342 50.9917 58.9008 51.9583 58.0842 52.775C57.2675 53.5917 56.3008 54.2333 55.1842 54.7C54.0842 55.15 52.8758 55.375 51.5592 55.375C50.2592 55.375 49.0508 55.15 47.9342 54.7C46.8175 54.2333 45.8508 53.5917 45.0342 52.775C44.2342 51.9583 43.6092 50.9917 43.1592 49.875C42.7092 48.7583 42.4842 47.55 42.4842 46.25ZM68.4281 49.375C68.8115 50.0417 69.2198 50.6333 69.6531 51.15C70.1031 51.65 70.5948 52.0417 71.1281 52.325C71.6615 52.5917 72.2615 52.725 72.9281 52.725C73.7281 52.725 74.3781 52.5083 74.8781 52.075C75.3781 51.6417 75.6281 51.0833 75.6281 50.4C75.6281 49.75 75.4698 49.2333 75.1531 48.85C74.8365 48.45 74.3948 48.1167 73.8281 47.85C73.2781 47.5667 72.6365 47.2917 71.9031 47.025C71.4698 46.875 70.9865 46.675 70.4531 46.425C69.9198 46.1583 69.4115 45.8333 68.9281 45.45C68.4448 45.05 68.0448 44.5667 67.7281 44C67.4115 43.4167 67.2531 42.7167 67.2531 41.9C67.2531 40.9667 67.4948 40.15 67.9781 39.45C68.4615 38.7333 69.1115 38.1833 69.9281 37.8C70.7615 37.4 71.7031 37.2 72.7531 37.2C73.7865 37.2 74.6865 37.3833 75.4531 37.75C76.2198 38.1167 76.8615 38.5833 77.3781 39.15C77.9115 39.7167 78.3281 40.3083 78.6281 40.925L76.2281 42.275C76.0115 41.8417 75.7365 41.4417 75.4031 41.075C75.0698 40.6917 74.6781 40.3917 74.2281 40.175C73.7948 39.9417 73.2865 39.825 72.7031 39.825C71.8865 39.825 71.2865 40.0167 70.9031 40.4C70.5198 40.7667 70.3281 41.2 70.3281 41.7C70.3281 42.15 70.4615 42.5583 70.7281 42.925C71.0115 43.275 71.4448 43.6083 72.0281 43.925C72.6115 44.2417 73.3698 44.5667 74.3031 44.9C74.8198 45.0833 75.3365 45.3167 75.8531 45.6C76.3865 45.8833 76.8698 46.2417 77.3031 46.675C77.7365 47.0917 78.0781 47.5833 78.3281 48.15C78.5948 48.7167 78.7281 49.3833 78.7281 50.15C78.7281 50.9667 78.5698 51.7 78.2531 52.35C77.9365 53 77.5031 53.55 76.9531 54C76.4031 54.4333 75.7781 54.7667 75.0781 55C74.3948 55.25 73.6781 55.375 72.9281 55.375C71.8948 55.375 70.9365 55.175 70.0531 54.775C69.1865 54.3583 68.4281 53.8083 67.7781 53.125C67.1281 52.4417 66.6115 51.7 66.2281 50.9L68.4281 49.375ZM83.7557 40.225V37.5H95.9557V40.225H91.3307V55H88.3557V40.225H83.7557Z" fill="white"/>
</svg>
