<svg width="178" height="17" viewBox="0 0 178 17" fill="none" xmlns="http://www.w3.org/2000/svg">
<path d="M32.638 12.25V5.95H34.136V12.25H32.638ZM30.16 9.8V8.4H36.614V9.8H30.16ZM39.6251 14L43.6711 4.928L44.1471 5.74H38.5891L39.4571 4.858V7.406H37.7631V4.2H45.3791V5.418L41.5711 14H39.6251ZM52.6418 16.716C52.0911 15.8667 51.6665 14.8867 51.3678 13.776C51.0785 12.656 50.9338 11.452 50.9338 10.164C50.9338 8.876 51.0785 7.672 51.3678 6.552C51.6665 5.42267 52.0911 4.44267 52.6418 3.612H54.3078C53.7385 4.63867 53.3185 5.68867 53.0478 6.762C52.7865 7.826 52.6558 8.96 52.6558 10.164C52.6558 11.368 52.7865 12.5067 53.0478 13.58C53.3185 14.644 53.7385 15.6893 54.3078 16.716H52.6418ZM58.5313 4.06C59.4273 4.06 60.188 4.25133 60.8133 4.634C61.448 5.00733 61.9333 5.55333 62.2693 6.272C62.6053 6.99067 62.7733 7.87733 62.7733 8.932C62.7733 10.052 62.568 10.9993 62.1573 11.774C61.756 12.5487 61.196 13.1367 60.4773 13.538C59.7587 13.9393 58.9233 14.14 57.9713 14.14C57.4767 14.14 57.0053 14.0887 56.5573 13.986C56.1093 13.8833 55.722 13.7247 55.3953 13.51L56.0673 12.138C56.338 12.3153 56.632 12.4413 56.9493 12.516C57.2667 12.5813 57.5933 12.614 57.9293 12.614C58.8533 12.614 59.586 12.3293 60.1273 11.76C60.6687 11.1907 60.9393 10.3507 60.9393 9.24C60.9393 9.06267 60.9347 8.85733 60.9253 8.624C60.916 8.38133 60.8833 8.13867 60.8273 7.896L61.3873 8.512C61.2287 8.89467 61 9.21667 60.7013 9.478C60.4027 9.73 60.0527 9.92133 59.6513 10.052C59.25 10.1827 58.8067 10.248 58.3213 10.248C57.6867 10.248 57.1127 10.1267 56.5993 9.884C56.0953 9.632 55.694 9.282 55.3953 8.834C55.0967 8.37667 54.9473 7.84467 54.9473 7.238C54.9473 6.58467 55.106 6.02467 55.4233 5.558C55.7407 5.082 56.17 4.71333 56.7113 4.452C57.262 4.19067 57.8687 4.06 58.5313 4.06ZM58.6293 5.488C58.256 5.488 57.9247 5.558 57.6353 5.698C57.346 5.82867 57.1173 6.02 56.9493 6.272C56.7907 6.51467 56.7113 6.80867 56.7113 7.154C56.7113 7.66733 56.8887 8.07333 57.2433 8.372C57.598 8.67067 58.074 8.82 58.6713 8.82C59.0633 8.82 59.4087 8.75 59.7073 8.61C60.006 8.46067 60.2393 8.26 60.4073 8.008C60.5753 7.74667 60.6593 7.45733 60.6593 7.14C60.6593 6.832 60.58 6.55667 60.4213 6.314C60.2627 6.062 60.034 5.86133 59.7353 5.712C59.4367 5.56267 59.068 5.488 58.6293 5.488ZM68.0927 14.14C67.318 14.14 66.618 13.944 65.9927 13.552C65.3767 13.16 64.8913 12.5907 64.5367 11.844C64.182 11.088 64.0047 10.1733 64.0047 9.1C64.0047 8.02667 64.182 7.11667 64.5367 6.37C64.8913 5.614 65.3767 5.04 65.9927 4.648C66.618 4.256 67.318 4.06 68.0927 4.06C68.8767 4.06 69.5767 4.256 70.1927 4.648C70.8087 5.04 71.294 5.614 71.6487 6.37C72.0127 7.11667 72.1947 8.02667 72.1947 9.1C72.1947 10.1733 72.0127 11.088 71.6487 11.844C71.294 12.5907 70.8087 13.16 70.1927 13.552C69.5767 13.944 68.8767 14.14 68.0927 14.14ZM68.0927 12.558C68.55 12.558 68.9467 12.4367 69.2827 12.194C69.6187 11.942 69.88 11.5593 70.0667 11.046C70.2627 10.5327 70.3607 9.884 70.3607 9.1C70.3607 8.30667 70.2627 7.658 70.0667 7.154C69.88 6.64067 69.6187 6.26267 69.2827 6.02C68.9467 5.768 68.55 5.642 68.0927 5.642C67.654 5.642 67.262 5.768 66.9167 6.02C66.5807 6.26267 66.3147 6.64067 66.1187 7.154C65.932 7.658 65.8387 8.30667 65.8387 9.1C65.8387 9.884 65.932 10.5327 66.1187 11.046C66.3147 11.5593 66.5807 11.942 66.9167 12.194C67.262 12.4367 67.654 12.558 68.0927 12.558ZM76.6726 14.14C75.9819 14.14 75.3053 14.042 74.6426 13.846C73.9893 13.6407 73.4386 13.3607 72.9906 13.006L73.7606 11.592C74.1153 11.8813 74.5446 12.1147 75.0486 12.292C75.5619 12.4693 76.0939 12.558 76.6446 12.558C77.2886 12.558 77.7926 12.4227 78.1566 12.152C78.5299 11.8813 78.7166 11.5173 78.7166 11.06C78.7166 10.752 78.6373 10.4813 78.4786 10.248C78.3293 10.0147 78.0586 9.83733 77.6666 9.716C77.2839 9.59467 76.7566 9.534 76.0846 9.534H73.7186L74.2226 4.2H79.9766V5.726H74.8946L75.8466 4.858L75.4686 8.848L74.5166 7.994H76.4906C77.4613 7.994 78.2406 8.12467 78.8286 8.386C79.4259 8.638 79.8599 8.99267 80.1306 9.45C80.4106 9.898 80.5506 10.4113 80.5506 10.99C80.5506 11.5593 80.4106 12.082 80.1306 12.558C79.8506 13.034 79.4213 13.4167 78.8426 13.706C78.2733 13.9953 77.5499 14.14 76.6726 14.14ZM82.9584 16.716H81.2924C81.871 15.6893 82.291 14.644 82.5524 13.58C82.823 12.5067 82.9584 11.368 82.9584 10.164C82.9584 8.96 82.823 7.826 82.5524 6.762C82.291 5.68867 81.871 4.63867 81.2924 3.612H82.9584C83.5184 4.44267 83.943 5.42267 84.2324 6.552C84.5217 7.672 84.6664 8.876 84.6664 10.164C84.6664 11.452 84.5217 12.656 84.2324 13.776C83.943 14.8867 83.5184 15.8667 82.9584 16.716ZM93.4167 14.14C92.726 14.14 92.0494 14.042 91.3867 13.846C90.7334 13.6407 90.1827 13.3607 89.7347 13.006L90.5187 11.592C90.8734 11.8813 91.3027 12.1147 91.8067 12.292C92.3107 12.4693 92.838 12.558 93.3887 12.558C94.042 12.558 94.5507 12.4273 94.9147 12.166C95.2787 11.8953 95.4607 11.5313 95.4607 11.074C95.4607 10.626 95.2927 10.2713 94.9567 10.01C94.6207 9.74867 94.0794 9.618 93.3327 9.618H92.4367V8.372L95.2367 5.04L95.4747 5.726H90.2107V4.2H96.8887V5.418L94.0887 8.75L93.1367 8.19H93.6827C94.8867 8.19 95.7874 8.46067 96.3847 9.002C96.9914 9.534 97.2947 10.22 97.2947 11.06C97.2947 11.6107 97.1547 12.1193 96.8747 12.586C96.5947 13.0527 96.1654 13.4307 95.5867 13.72C95.0174 14 94.294 14.14 93.4167 14.14ZM102.727 14.14C101.84 14.14 101.08 13.9533 100.445 13.58C99.8105 13.1973 99.3251 12.6467 98.9891 11.928C98.6531 11.2093 98.4851 10.3227 98.4851 9.268C98.4851 8.148 98.6858 7.20067 99.0871 6.426C99.4978 5.65133 100.062 5.06333 100.781 4.662C101.509 4.26067 102.344 4.06 103.287 4.06C103.782 4.06 104.253 4.11133 104.701 4.214C105.158 4.31667 105.546 4.47533 105.863 4.69L105.191 6.062C104.92 5.88467 104.626 5.76333 104.309 5.698C104.001 5.62333 103.674 5.586 103.329 5.586C102.405 5.586 101.672 5.87067 101.131 6.44C100.59 7.00933 100.319 7.84933 100.319 8.96C100.319 9.13733 100.324 9.34733 100.333 9.59C100.342 9.82333 100.375 10.0613 100.431 10.304L99.8711 9.688C100.039 9.30533 100.268 8.988 100.557 8.736C100.856 8.47467 101.206 8.27867 101.607 8.148C102.018 8.01733 102.461 7.952 102.937 7.952C103.581 7.952 104.155 8.078 104.659 8.33C105.163 8.57267 105.564 8.92267 105.863 9.38C106.162 9.828 106.311 10.3553 106.311 10.962C106.311 11.606 106.152 12.166 105.835 12.642C105.518 13.118 105.088 13.4867 104.547 13.748C104.006 14.0093 103.399 14.14 102.727 14.14ZM102.629 12.712C103.002 12.712 103.334 12.6467 103.623 12.516C103.912 12.376 104.136 12.18 104.295 11.928C104.463 11.676 104.547 11.382 104.547 11.046C104.547 10.5327 104.37 10.1267 104.015 9.828C103.66 9.52933 103.184 9.38 102.587 9.38C102.195 9.38 101.85 9.45467 101.551 9.604C101.262 9.744 101.028 9.94 100.851 10.192C100.683 10.444 100.599 10.7333 100.599 11.06C100.599 11.3587 100.678 11.634 100.837 11.886C100.996 12.138 101.224 12.3387 101.523 12.488C101.831 12.6373 102.2 12.712 102.629 12.712ZM111.504 14.14C110.618 14.14 109.857 13.9533 109.222 13.58C108.588 13.1973 108.102 12.6467 107.766 11.928C107.43 11.2093 107.262 10.3227 107.262 9.268C107.262 8.148 107.463 7.20067 107.864 6.426C108.275 5.65133 108.84 5.06333 109.558 4.662C110.286 4.26067 111.122 4.06 112.064 4.06C112.559 4.06 113.03 4.11133 113.478 4.214C113.936 4.31667 114.323 4.47533 114.64 4.69L113.968 6.062C113.698 5.88467 113.404 5.76333 113.086 5.698C112.778 5.62333 112.452 5.586 112.106 5.586C111.182 5.586 110.45 5.87067 109.908 6.44C109.367 7.00933 109.096 7.84933 109.096 8.96C109.096 9.13733 109.101 9.34733 109.11 9.59C109.12 9.82333 109.152 10.0613 109.208 10.304L108.648 9.688C108.816 9.30533 109.045 8.988 109.334 8.736C109.633 8.47467 109.983 8.27867 110.384 8.148C110.795 8.01733 111.238 7.952 111.714 7.952C112.358 7.952 112.932 8.078 113.436 8.33C113.94 8.57267 114.342 8.92267 114.64 9.38C114.939 9.828 115.088 10.3553 115.088 10.962C115.088 11.606 114.93 12.166 114.612 12.642C114.295 13.118 113.866 13.4867 113.324 13.748C112.783 14.0093 112.176 14.14 111.504 14.14ZM111.406 12.712C111.78 12.712 112.111 12.6467 112.4 12.516C112.69 12.376 112.914 12.18 113.072 11.928C113.24 11.676 113.324 11.382 113.324 11.046C113.324 10.5327 113.147 10.1267 112.792 9.828C112.438 9.52933 111.962 9.38 111.364 9.38C110.972 9.38 110.627 9.45467 110.328 9.604C110.039 9.744 109.806 9.94 109.628 10.192C109.46 10.444 109.376 10.7333 109.376 11.06C109.376 11.3587 109.456 11.634 109.614 11.886C109.773 12.138 110.002 12.3387 110.3 12.488C110.608 12.6373 110.977 12.712 111.406 12.712ZM116.262 10.836V9.38H120.112V10.836H116.262ZM122.996 14L127.042 4.928L127.518 5.74H121.96L122.828 4.858V7.406H121.134V4.2H128.75V5.418L124.942 14H122.996ZM132.878 14.14C132.187 14.14 131.51 14.042 130.848 13.846C130.194 13.6407 129.644 13.3607 129.196 13.006L129.966 11.592C130.32 11.8813 130.75 12.1147 131.254 12.292C131.767 12.4693 132.299 12.558 132.85 12.558C133.494 12.558 133.998 12.4227 134.362 12.152C134.735 11.8813 134.922 11.5173 134.922 11.06C134.922 10.752 134.842 10.4813 134.684 10.248C134.534 10.0147 134.264 9.83733 133.872 9.716C133.489 9.59467 132.962 9.534 132.29 9.534H129.924L130.428 4.2H136.182V5.726H131.1L132.052 4.858L131.674 8.848L130.722 7.994H132.696C133.666 7.994 134.446 8.12467 135.034 8.386C135.631 8.638 136.065 8.99267 136.336 9.45C136.616 9.898 136.756 10.4113 136.756 10.99C136.756 11.5593 136.616 12.082 136.336 12.558C136.056 13.034 135.626 13.4167 135.048 13.706C134.478 13.9953 133.755 14.14 132.878 14.14ZM137.959 10.836V9.38H141.809V10.836H137.959ZM142.861 14V12.782L146.753 9.086C147.08 8.778 147.322 8.50733 147.481 8.274C147.64 8.04067 147.742 7.826 147.789 7.63C147.845 7.42467 147.873 7.23333 147.873 7.056C147.873 6.608 147.719 6.26267 147.411 6.02C147.103 5.768 146.65 5.642 146.053 5.642C145.577 5.642 145.143 5.726 144.751 5.894C144.368 6.062 144.037 6.31867 143.757 6.664L142.483 5.684C142.866 5.17067 143.379 4.774 144.023 4.494C144.676 4.20467 145.404 4.06 146.207 4.06C146.916 4.06 147.532 4.17667 148.055 4.41C148.587 4.634 148.993 4.956 149.273 5.376C149.562 5.796 149.707 6.29533 149.707 6.874C149.707 7.19133 149.665 7.50867 149.581 7.826C149.497 8.134 149.338 8.46067 149.105 8.806C148.872 9.15133 148.531 9.53867 148.083 9.968L144.737 13.146L144.359 12.46H150.085V14H142.861ZM155.378 14.14C154.491 14.14 153.73 13.9533 153.096 13.58C152.461 13.1973 151.976 12.6467 151.64 11.928C151.304 11.2093 151.136 10.3227 151.136 9.268C151.136 8.148 151.336 7.20067 151.738 6.426C152.148 5.65133 152.713 5.06333 153.432 4.662C154.16 4.26067 154.995 4.06 155.938 4.06C156.432 4.06 156.904 4.11133 157.352 4.214C157.809 4.31667 158.196 4.47533 158.514 4.69L157.842 6.062C157.571 5.88467 157.277 5.76333 156.96 5.698C156.652 5.62333 156.325 5.586 155.98 5.586C155.056 5.586 154.323 5.87067 153.782 6.44C153.24 7.00933 152.97 7.84933 152.97 8.96C152.97 9.13733 152.974 9.34733 152.984 9.59C152.993 9.82333 153.026 10.0613 153.082 10.304L152.522 9.688C152.69 9.30533 152.918 8.988 153.208 8.736C153.506 8.47467 153.856 8.27867 154.258 8.148C154.668 8.01733 155.112 7.952 155.588 7.952C156.232 7.952 156.806 8.078 157.31 8.33C157.814 8.57267 158.215 8.92267 158.514 9.38C158.812 9.828 158.962 10.3553 158.962 10.962C158.962 11.606 158.803 12.166 158.486 12.642C158.168 13.118 157.739 13.4867 157.198 13.748C156.656 14.0093 156.05 14.14 155.378 14.14ZM155.28 12.712C155.653 12.712 155.984 12.6467 156.274 12.516C156.563 12.376 156.787 12.18 156.946 11.928C157.114 11.676 157.198 11.382 157.198 11.046C157.198 10.5327 157.02 10.1267 156.666 9.828C156.311 9.52933 155.835 9.38 155.238 9.38C154.846 9.38 154.5 9.45467 154.202 9.604C153.912 9.744 153.679 9.94 153.502 10.192C153.334 10.444 153.25 10.7333 153.25 11.06C153.25 11.3587 153.329 11.634 153.488 11.886C153.646 12.138 153.875 12.3387 154.174 12.488C154.482 12.6373 154.85 12.712 155.28 12.712Z" fill="white"/>
<path d="M5.04492 11.1611C7.02051 13.1367 9.41992 14.6611 11.3818 14.6611C12.2637 14.6611 13.0361 14.3535 13.6582 13.6699C14.0205 13.2666 14.2461 12.7949 14.2461 12.3301C14.2461 11.9883 14.1162 11.6602 13.7949 11.4277L11.6963 9.9375C11.375 9.71875 11.1084 9.60938 10.8623 9.60938C10.5547 9.60938 10.2744 9.78711 9.95996 10.0947L9.47461 10.5732C9.39941 10.6484 9.30371 10.6826 9.21484 10.6826C9.1123 10.6826 9.00977 10.6416 8.94141 10.6074C8.51758 10.3818 7.79297 9.75977 7.11621 9.08984C6.44629 8.41992 5.82422 7.69531 5.60547 7.27148C5.57129 7.19629 5.53027 7.10059 5.53027 6.99805C5.53027 6.90918 5.55762 6.82031 5.63281 6.74512L6.11816 6.24609C6.41895 5.93164 6.60352 5.6582 6.60352 5.34375C6.60352 5.09766 6.4873 4.83105 6.26172 4.50977L4.79199 2.43848C4.55273 2.11035 4.21777 1.9668 3.84863 1.9668C3.39746 1.9668 2.93262 2.17188 2.5293 2.56152C1.86621 3.19727 1.57227 3.9834 1.57227 4.85156C1.57227 6.81348 3.06934 9.19238 5.04492 11.1611Z" fill="white"/>
</svg>
