<svg width="170" height="18" viewBox="0 0 170 18" fill="none" xmlns="http://www.w3.org/2000/svg">
<path fill-rule="evenodd" clip-rule="evenodd" d="M5.49459 10.8307L1.08779 9.15147C0.640217 8.9802 0.636332 8.3351 1.08263 8.15937L19.1683 1.03648C19.5517 0.885082 19.9473 1.22804 19.8638 1.6391L16.6182 17.5778C16.5417 17.9541 16.1095 18.1247 15.8045 17.8984L11.374 14.6144C11.1049 14.4149 10.7381 14.4256 10.4806 14.6398L8.02422 16.6843C7.73906 16.9223 7.30945 16.7897 7.20031 16.431L5.49459 10.8307ZM15.5379 4.5213L6.92536 9.93678C6.59526 10.1448 6.43983 10.5518 6.54648 10.9328L7.47767 14.2733C7.54378 14.51 7.88034 14.4857 7.91239 14.2411L8.15452 12.4093C8.20016 12.0644 8.36134 11.7466 8.61116 11.5092L15.719 4.7638C15.8519 4.63792 15.6927 4.42424 15.5379 4.5213Z" fill="white"/>
<path d="M6.92536 9.93678L15.5379 4.5213C15.6927 4.42424 15.8519 4.63792 15.719 4.7638L8.61116 11.5092C8.36134 11.7466 8.20016 12.0644 8.15452 12.4093L7.91239 14.2411C7.88034 14.4857 7.54378 14.51 7.47767 14.2733L6.54648 10.9328C6.43983 10.5518 6.59526 10.1448 6.92536 9.93678Z" fill="#E6E6E6"/>
<path d="M166.835 11.3585C167.469 11.9307 168.139 12.4692 168.708 13.0992C168.959 13.3791 169.197 13.668 169.379 13.9929C169.637 14.4548 169.403 14.963 168.955 14.9906L166.169 14.9894C165.45 15.0445 164.877 14.7772 164.395 14.3233C164.009 13.9602 163.652 13.5739 163.281 13.1986C163.129 13.0452 162.97 12.9008 162.78 12.7868C162.4 12.5586 162.069 12.6285 161.852 12.995C161.631 13.3678 161.58 13.7806 161.559 14.1961C161.529 14.8023 161.331 14.9616 160.672 14.9894C159.263 15.0507 157.926 14.8539 156.685 14.1974C155.59 13.6187 154.741 12.8017 154.002 11.8767C152.563 10.0757 151.462 8.09667 150.472 6.06218C150.249 5.60381 150.412 5.35776 150.959 5.34905C151.868 5.33273 152.777 5.33389 153.687 5.34789C154.056 5.35288 154.301 5.54865 154.443 5.87111C154.935 6.98833 155.537 8.05127 156.292 9.03652C156.493 9.29883 156.698 9.56114 156.991 9.74576C157.314 9.95019 157.56 9.88243 157.712 9.54987C157.808 9.33901 157.85 9.11188 157.872 8.88603C157.944 8.10904 157.954 7.33337 157.827 6.5591C157.75 6.07588 157.455 5.76306 156.933 5.67162C156.667 5.625 156.707 5.53344 156.836 5.393C157.06 5.15078 157.27 5 157.69 5H160.839C161.335 5.0904 161.445 5.29616 161.513 5.75703L161.515 8.98874C161.51 9.16715 161.612 9.69659 161.959 9.81468C162.238 9.89875 162.421 9.69299 162.588 9.5299C163.342 8.79058 163.88 7.91686 164.361 7.01214C164.574 6.61432 164.758 6.20117 164.936 5.78838C165.067 5.48206 165.274 5.33134 165.647 5.33802L168.678 5.34051C168.768 5.34051 168.859 5.34173 168.946 5.35549C169.456 5.4359 169.596 5.63888 169.439 6.09963C169.19 6.82252 168.707 7.42493 168.234 8.03013C167.728 8.67627 167.188 9.30028 166.687 9.95025C166.226 10.5438 166.263 10.843 166.835 11.3585Z" fill="white"/>
<path fill-rule="evenodd" clip-rule="evenodd" d="M67.0526 1H59.3224C56.1809 1 53.625 3.27187 53.625 6.06439V12.9356C53.625 15.7281 56.1809 18 59.3224 18H67.0526C70.1941 18 72.75 15.7281 72.75 12.9356V6.06439C72.75 3.27187 70.1941 1 67.0526 1ZM70.826 12.9356C70.826 14.7881 69.1366 16.2898 67.0526 16.2898H59.3224C57.2384 16.2898 55.549 14.7881 55.549 12.9356V6.06439C55.549 4.2119 57.2384 2.71019 59.3224 2.71019H67.0526C69.1366 2.71019 70.826 4.2119 70.826 6.06439V12.9356ZM58.2412 9.49998C58.2412 7.07561 60.4601 5.10321 63.1876 5.10321C65.915 5.10321 68.134 7.07558 68.134 9.49998C68.134 11.9244 65.915 13.8968 63.1876 13.8968C60.4601 13.8968 58.2412 11.9244 58.2412 9.49998ZM63.1876 12.1866C61.5183 12.1866 60.1652 10.9838 60.1652 9.50001C60.1652 8.01622 61.5184 6.8134 63.1876 6.8134C64.8568 6.8134 66.21 8.01622 66.21 9.50001C66.21 10.9838 64.8568 12.1866 63.1876 12.1866ZM69.3288 5.13619C69.3288 5.71806 68.7981 6.18975 68.1435 6.18975C67.4889 6.18975 66.9583 5.71806 66.9583 5.13619C66.9583 4.55432 67.4889 4.08262 68.1435 4.08262C68.7981 4.08262 69.3288 4.55432 69.3288 5.13619Z" fill="white"/>
<path fill-rule="evenodd" clip-rule="evenodd" d="M113.232 17H108.743V8.97243H106.5V5.87895H108.743V4.02323C108.743 1.50139 110.01 0 113.608 0H116.604V3.09349H114.732C113.331 3.09349 113.238 3.52529 113.238 4.3322L113.232 5.87895H116.625L116.228 8.97243H113.232V17Z" fill="white"/>
</svg>
